<?xml version="1.0" encoding="UTF-8" standalone="no"?>
<!-- Created with Inkscape (http://www.inkscape.org/) -->

<svg
   width="512"
   height="512"
   viewBox="0 0 512 512"
   version="1.1"
   id="svg1"
   xmlns:xlink="http://www.w3.org/1999/xlink"
   xmlns="http://www.w3.org/2000/svg"
   xmlns:svg="http://www.w3.org/2000/svg">
  <defs
     id="defs1">
    <linearGradient
       id="linearGradient56">
      <stop
         style="stop-color:#9ce1f2;stop-opacity:1;"
         offset="0.09335802"
         id="stop56" />
      <stop
         style="stop-color:#555291;stop-opacity:1;"
         offset="1"
         id="stop57" />
    </linearGradient>
    <linearGradient
       id="linearGradient38">
      <stop
         style="stop-color:#f5f9f9;stop-opacity:1;"
         offset="0.42256433"
         id="stop39" />
      <stop
         style="stop-color:#d1f6ff;stop-opacity:1;"
         offset="0.85258973"
         id="stop38" />
    </linearGradient>
    <linearGradient
       xlink:href="#linearGradient15"
       id="linearGradient17"
       x1="104.44751"
       y1="217.00395"
       x2="104.44751"
       y2="106.08144"
       gradientUnits="userSpaceOnUse"
       gradientTransform="matrix(1.2788377,0,0,1.2788377,109.03028,-24.543269)" />
    <linearGradient
       id="linearGradient15">
      <stop
         style="stop-color:#eebc85;stop-opacity:1;"
         offset="0.15336585"
         id="stop16" />
      <stop
         style="stop-color:#fbc481;stop-opacity:1;"
         offset="1"
         id="stop17" />
    </linearGradient>
    <linearGradient
       xlink:href="#linearGradient18"
       id="linearGradient19"
       x1="104.86375"
       y1="177.87352"
       x2="104.86375"
       y2="86.411438"
       gradientUnits="userSpaceOnUse" />
    <linearGradient
       id="linearGradient18">
      <stop
         style="stop-color:#ca917a;stop-opacity:1;"
         offset="0"
         id="stop18" />
      <stop
         style="stop-color:#d79478;stop-opacity:1;"
         offset="0.84974092"
         id="stop19" />
    </linearGradient>
    <linearGradient
       xlink:href="#linearGradient20"
       id="linearGradient21"
       x1="104.87964"
       y1="175.29994"
       x2="104.87964"
       y2="82.655067"
       gradientUnits="userSpaceOnUse" />
    <linearGradient
       id="linearGradient20">
      <stop
         style="stop-color:#ca917a;stop-opacity:1;"
         offset="0"
         id="stop20" />
      <stop
         style="stop-color:#d79478;stop-opacity:1;"
         offset="1"
         id="stop21" />
    </linearGradient>
    <radialGradient
       xlink:href="#linearGradient12"
       id="radialGradient13"
       cx="128.01991"
       cy="88.274139"
       fx="128.01991"
       fy="88.274139"
       r="14.160733"
       gradientTransform="matrix(2.2013138,0,0,1.2942692,-8.1397852,-25.715196)"
       gradientUnits="userSpaceOnUse" />
    <linearGradient
       id="linearGradient12">
      <stop
         style="stop-color:#ffffff;stop-opacity:1;"
         offset="0.63832784"
         id="stop12" />
      <stop
         style="stop-color:#ffffff;stop-opacity:0;"
         offset="0.82330799"
         id="stop14" />
      <stop
         style="stop-color:#ffffff;stop-opacity:0;"
         offset="0.91657221"
         id="stop15" />
      <stop
         style="stop-color:#ffffff;stop-opacity:0;"
         offset="0.98341364"
         id="stop13" />
    </linearGradient>
    <linearGradient
       xlink:href="#linearGradient38"
       id="linearGradient39"
       x1="256.49997"
       y1="74.408699"
       x2="256.49997"
       y2="527.52893"
       gradientUnits="userSpaceOnUse" />
    <linearGradient
       xlink:href="#linearGradient56"
       id="linearGradient57"
       x1="258.62387"
       y1="35.501629"
       x2="258.62387"
       y2="514.96228"
       gradientUnits="userSpaceOnUse" />
    <linearGradient
       xlink:href="#linearGradient38"
       id="linearGradient34"
       gradientUnits="userSpaceOnUse"
       x1="256.49997"
       y1="74.408699"
       x2="256.49997"
       y2="527.52893" />
    <linearGradient
       xlink:href="#linearGradient56"
       id="linearGradient35"
       gradientUnits="userSpaceOnUse"
       x1="258.62387"
       y1="35.501629"
       x2="258.62387"
       y2="514.96228" />
  </defs>
  <g
     id="layer1"
     transform="translate(13.499997,-16.5)">
    <path
       id="path4"
       style="display:inline;fill:url(#linearGradient17);stroke:none;stroke-width:6.39418;stroke-dasharray:none;stroke-opacity:1"
       d="m 230.64461,82.624721 -49.11824,10.243959 -31.25725,16.28486 -20.22555,25.21634 -0.26302,18.91176 13.65926,23.90256 38.08656,18.64941 53.84602,8.14242 43.21115,-3.3958 29.02203,-6.06002 31.78252,-15.75987 c 0,0 16.54783,-21.80179 16.02249,-22.85246 -0.52533,-1.05066 -2.62625,-25.74106 -2.62625,-25.74106 L 335.97344,108.62815 293.1591,87.61486 Z m 2.36389,29.155719 32.04498,1.31313 25.21636,4.46541 24.16491,8.66781 17.07327,16.02248 0.26302,12.87088 -10.50697,12.34547 -27.31722,13.65862 -32.43886,5.91004 -24.16559,0.52539 -29.28723,-2.49541 -26.13493,-7.61771 -19.70017,-11.68858 -9.06168,-14.70938 4.72777,-13.26406 17.07326,-12.34548 27.31721,-10.24395 z" />
    <path
       style="display:inline;fill:#ffffaa;fill-opacity:1;fill-rule:nonzero;stroke:none;stroke-width:15;stroke-linecap:round;stroke-dasharray:none;stroke-opacity:1"
       d="m 117.98121,78.737584 c 0.0352,0.02441 0.0988,0.05783 0.21742,0.151541 0.38991,0.308149 1.62755,1.563893 2.9329,3.070352 1.30303,1.503784 2.61335,3.250807 3.68054,4.543184 0.30807,0.373065 0.67433,0.795797 1.05783,1.245703 1.17211,1.375084 2.34574,2.829031 3.48251,4.710329 1.63384,2.703926 2.57041,5.398414 2.73126,6.104295 0.0237,0.104113 0.0254,0.148775 0.0301,0.176939 a 3.4425029,3.4425029 90 0 0 6.79018,-1.1388 c -0.006,-0.03519 -0.0196,-0.08294 -0.0359,-0.210711 -0.10762,-0.844622 -0.20423,-4.242419 -1.35396,-8.295651 -0.78444,-2.765464 -1.90106,-5.279571 -3.23966,-7.391007 -0.44988,-0.709612 -0.90199,-1.336156 -1.33308,-1.864843 -3.49172,-4.282181 -8.64038,-6.531206 -10.16434,-7.486956 -0.14695,-0.09216 -0.20582,-0.143595 -0.24708,-0.172211 a 3.990504,3.990504 90 0 0 -4.54876,6.557836 z"
       id="path6"
       transform="matrix(1.2788377,0,0,1.2788377,176.56066,18.539399)" />
    <path
       style="fill:#ffffaa;fill-opacity:1;fill-rule:nonzero;stroke:none;stroke-width:15;stroke-linecap:round;stroke-dasharray:none;stroke-opacity:1"
       d="m 64.834706,101.69725 c 0,0 -0.271801,0.0691 0,0 3.504484,-0.89098 9.823186,-2.179065 17.396421,-3.057019 8.066315,-0.935117 14.873694,-1.141602 22.076583,-1.212759 0.0396,-3.91e-4 0.66195,-0.0063 0.70151,-0.0067 7.03209,-0.06539 13.86211,-0.03756 21.91844,0.81359 7.69849,0.813342 13.99987,2.162499 17.70213,3.178109 0.28449,0.078 0,0 0,0 a 5.8005275,5.8005275 90 0 0 3.70136,-10.994742 c 0,0 0.29865,0.118269 0,0 -3.88473,-1.538427 -10.42499,-4.160792 -18.84873,-6.271884 -8.45747,-2.119546 -16.93005,-3.232355 -24.59791,-3.185867 -0.26393,0.0016 -0.53018,0.0046 -0.79868,0.0091 -7.81763,0.13014 -16.241623,1.436823 -24.53448,3.588159 -8.143579,2.112611 -14.62299,4.629302 -18.238154,5.985347 -0.281217,0.105484 0,0 0,0 a 5.8486695,5.8486695 90 0 0 3.52151,11.154672 z"
       id="path5"
       transform="matrix(1.2788377,0,0,1.2788377,109.07534,-21.385808)" />
    <path
       id="path2"
       style="fill:url(#linearGradient19);fill-rule:nonzero;stroke:none;stroke-width:4.83058"
       d="m 191.53214,133.99107 c 0.0487,2.33734 -0.19856,5.35757 -1.41428,8.76516 -0.90999,2.55066 -2.36082,5.31489 -4.62009,8.1755 -3.77922,4.78513 -9.66196,9.62443 -18.2277,13.909 -7.63968,3.82135 -17.0267,6.99956 -27.90744,9.20061 -10.67267,2.15896 -22.34768,3.28835 -34.48488,3.28807 -4e-5,0 -0.24978,-1.6e-4 -0.24981,-1.6e-4 -11.316727,-0.0147 -23.000461,-1.02629 -34.231545,-3.30617 -10.155607,-2.06156 -19.72398,-5.12144 -27.898162,-9.20903 -7.716359,-3.85865 -13.992617,-8.53858 -18.230704,-13.89049 -2.060879,-2.6025 -3.614704,-5.33264 -4.627828,-8.16814 -1.005079,-2.81298 -1.480703,-5.73611 -1.392065,-8.76435 0.08867,-3.02927 0.742821,-6.0208 1.906993,-8.94429 1.172785,-2.94512 2.866244,-5.82845 5.028688,-8.61055 4.440966,-5.71355 10.791101,-10.91416 18.458003,-15.30217 8.13742,-4.657301 17.541311,-8.281265 27.512498,-10.763399 11.120493,-2.76823 22.565868,-4.030788 33.723922,-4.031127 4e-5,0 0.16117,8.3e-5 0.16113,8.3e-5 11.80113,0.01245 23.13727,1.443462 33.55994,4.04212 10.656,2.656835 19.92075,6.424016 27.50998,10.761383 8.4982,4.85686 14.51173,10.19546 18.48015,15.28071 2.38169,3.05197 3.98886,5.95757 5.04865,8.60949 1.41916,3.55116 1.8442,6.61552 1.89455,8.95775 z m 4.9633,0 c 0.0505,-2.82686 -0.268,-6.52978 -1.72731,-10.83724 -1.08844,-3.21277 -2.78786,-6.68997 -5.33899,-10.30912 -4.24659,-6.02439 -10.69631,-12.19929 -19.72503,-17.753942 -8.05919,-4.958164 -17.88773,-9.234494 -29.15588,-12.24724 -11.02193,-2.946912 -23.02964,-4.578074 -35.50015,-4.593246 5e-5,0 -0.17038,-1.06e-4 -0.17033,-1.06e-4 -11.789124,-3.37e-4 -23.913649,1.457346 -35.667595,4.604422 -10.533812,2.820391 -20.51458,6.937179 -29.153379,12.245228 -8.128075,4.994234 -14.982888,10.998174 -19.747185,17.732484 -2.32599,3.28777 -4.145928,6.74034 -5.358964,10.30807 -1.206487,3.54847 -1.80383,7.1859 -1.714865,10.85068 0.08901,3.66643 0.863645,7.13988 2.22979,10.39522 1.372203,3.26977 3.332189,6.29743 5.759819,9.07524 4.961577,5.67727 11.904215,10.34964 19.974491,14.06066 8.580772,3.94576 18.44545,6.81297 28.767675,8.71608 11.42981,2.10733 23.240243,3.00554 34.658063,3.01841 -5e-5,0 0.2521,1.4e-4 0.25215,1.4e-4 12.24869,-2.8e-4 24.04648,-1.02699 34.90666,-3.0368 11.06114,-2.047 20.73576,-5.03653 28.75843,-8.72452 8.98277,-4.12935 15.52106,-8.95502 19.97747,-14.04215 2.67542,-3.05408 4.52724,-6.11573 5.76755,-9.06787 1.66274,-3.95759 2.15854,-7.55867 2.20758,-10.3944 z"
       transform="matrix(1.2788377,0,0,1.2788377,109.03028,-24.543264)" />
    <path
       id="path3"
       style="fill:url(#linearGradient21);fill-rule:nonzero;stroke:none;stroke-width:4.83058"
       d="m 190.9915,127.81755 c 0.0331,2.28105 -0.23348,5.30745 -1.46791,8.85333 -0.92369,2.65329 -2.38758,5.59214 -4.64947,8.70388 -3.7737,5.19158 -9.64645,10.67538 -18.13245,15.68129 -7.57161,4.4665 -16.89135,8.34437 -27.671,11.0813 -10.53821,2.67563 -22.05041,4.1519 -34.03249,4.1649 3e-5,0 -0.1604,9e-5 -0.16043,9e-5 -11.322007,-1.2e-4 -22.950727,-1.31708 -34.190482,-4.17475 -10.078876,-2.56252 -19.547901,-6.29569 -27.667376,-11.08208 -7.656152,-4.51326 -13.899332,-9.84308 -18.143263,-15.66717 -2.06465,-2.83339 -3.629984,-5.74862 -4.660398,-8.70166 -1.022584,-2.9306 -1.516812,-5.89301 -1.457774,-8.85913 0.05899,-2.96384 0.670901,-5.84768 1.782801,-8.6364 1.120614,-2.81057 2.755481,-5.53987 4.862973,-8.15926 4.331385,-5.38346 10.585838,-10.21294 18.208236,-14.257682 8.084561,-4.289986 17.476314,-7.579355 27.454087,-9.817405 11.12472,-2.495314 22.62159,-3.612006 33.811186,-3.611528 6e-5,0 0.16167,8.5e-5 0.16172,8.5e-5 11.84543,0.01186 23.21634,1.279584 33.64665,3.6237 10.67102,2.398216 19.90645,5.820352 27.44854,9.820503 8.44763,4.480427 14.34934,9.450017 18.21476,14.243767 2.31661,2.87298 3.86164,5.62713 4.87134,8.15537 1.35142,3.38389 1.73783,6.34912 1.77075,8.63885 z m 6.04458,0 c 0.0331,-2.88138 -0.32415,-6.61945 -1.85111,-10.88377 -1.13911,-3.1812 -2.89949,-6.57125 -5.5163,-10.04522 -4.35793,-5.7854 -10.90196,-11.536889 -19.99042,-16.612 -8.11176,-4.529706 -17.95661,-8.346974 -29.21732,-11.009245 -11.00962,-2.602904 -22.98727,-4.009038 -35.41343,-4.021292 3e-5,0 -0.16971,-8e-5 -0.16975,-8e-5 -11.735461,4.79e-4 -23.844946,1.25425 -35.580331,4.033624 C 58.78078,81.770297 48.770025,85.444531 40.085629,90.291913 31.916012,94.851961 24.961063,100.4339 20.088678,106.89 c -2.380795,3.15464 -4.259455,6.51311 -5.524679,10.04132 -1.25874,3.51014 -1.898318,7.15581 -1.839058,10.88623 0.05923,3.72847 0.815567,7.35599 2.164081,10.83097 1.355594,3.49321 3.303451,6.81762 5.727249,9.94041 4.959943,6.39031 11.925966,11.95866 20.061915,16.52826 8.65401,4.86057 18.578489,8.56866 28.998508,11.08735 11.631398,2.8115 23.587052,4.07946 35.201046,4.07934 6e-5,0 0.16462,-9e-5 0.16467,-9e-5 12.29297,-0.0128 24.1292,-1.44951 35.03396,-4.08902 11.14755,-2.69828 20.91719,-6.55432 28.99486,-11.08811 9.04506,-5.07678 15.62811,-10.8 20.07273,-16.51416 2.6716,-3.4347 4.51298,-6.78643 5.73817,-9.93819 1.64441,-4.23017 2.12053,-7.94909 2.15395,-10.83676 z"
       transform="matrix(1.0033716,0,0,0.76584924,137.91716,51.277136)" />
    <ellipse
       style="fill:url(#radialGradient13);stroke:none;stroke-width:75.9582;stroke-linecap:round;stroke-dasharray:none;stroke-opacity:1"
       id="path12"
       ry="18.327801"
       rx="31.172224"
       cy="88.535309"
       cx="273.67224" />
  </g>
  <g
     id="g34"
     style="display:inline;fill:#000000;fill-opacity:1">
    <path
       id="path38"
       style="opacity:1;fill:url(#linearGradient39);fill-opacity:1;stroke:none;stroke-width:1.25;stroke-dasharray:none;stroke-opacity:1"
       d="m 207.38998,356.25392 c -10.60232,13.49045 -21.1949,24.67969 -37.72393,39.08154 -12.233,10.65869 -46.75915,20.36566 -62.13201,18.89553 C 63.226814,409.99383 41.669001,375.46742 66.6814,363.37541 50.681605,351.46019 34.574846,340.93949 28.988907,329.35986 23.432725,317.84191 8.7994149,289.87046 53.580604,287.04918 36.896551,266.04951 20.809606,238.11838 32.412798,212.10723 c 4.521674,-9.10668 25.83514,-24.15165 41.174538,-24.15165 18.182477,0 65.636894,70.23202 168.790644,70.64774 -2.7355,24.10379 -8.69222,44.58606 -18.24098,66.64911 z" />
    <g
       id="layer2"
       style="fill:#000000;fill-opacity:1">
      <path
         id="path15"
         style="opacity:1;fill:#d1e4f5;fill-opacity:1;stroke:none;stroke-width:7.55906;stroke-linecap:round;stroke-linejoin:bevel;stroke-opacity:1"
         d="m 179.4677,382.97285 c 1.06892,-0.13409 1.41493,1.66567 -2.66627,3.25172 -5.63053,2.18816 -18.59652,3.02603 -24.19793,-0.67241 -14.70127,-9.70679 -10.98389,-24.36578 -6.1289,-26.29613 -4.59196,33.46278 27.31945,24.42853 32.9931,23.71682 z m -32.26372,-23.13966 c 0,0 -45.47575,8.61425 -42.5556,-33.40432 6.3248,13.03935 9.99878,29.95891 42.17007,32.66084 0.50172,0.0421 -0.12505,0.66487 0.38553,0.74348 z m -12.69822,-46.44194 c 0,0 -45.941744,-12.34346 -47.357383,-53.18113 -0.290952,-0.0975 -11.970643,46.46811 47.357383,53.18113 z m -31.10767,57.95169 -29.113988,-6.11797 c -8.733993,-0.69553 -16.47024,-4.69427 -16.903359,5.29419 l 1.170271,10.93436 C 68.81099,367.17491 91.770431,371.91037 103.39809,371.34294 Z M 83.724446,304.74383 52.659102,287.72497 C 43.925109,287.02944 40.995619,287.13654 35.625,288.25 l -7.396447,14.6731 c 13.880626,-8.74146 39.024873,-3.65236 55.495893,1.82073 z" />
    </g>
    <path
       id="path13"
       style="fill:url(#linearGradient57);fill-opacity:1;fill-rule:nonzero;stroke:none;stroke-width:4.72441;stroke-linecap:round;stroke-linejoin:round;stroke-dasharray:none;stroke-opacity:1"
       d="m 443.76647,157.31362 c 1.51843,-0.0551 3.0176,-0.0259 4.49218,0.082 1.96611,0.14387 3.89011,0.42955 5.76367,0.8418 7.98017,1.75592 14.82143,5.77319 20.24415,10.85547 6.07474,5.69337 10.35707,12.67606 13.02734,19.7539 3.24538,8.60227 4.07216,17.14308 3.52344,24.58399 -0.009,0.12536 -0.0192,0.2516 -0.0293,0.37695 -0.73969,9.21447 -3.65904,18.12564 -8.41211,26.25977 -4.50886,7.71618 -10.43445,14.36022 -17.17383,20.00781 2.63372,-0.7342 5.51935,-1.27547 8.52539,-1.36328 5.09983,-0.14898 10.33081,1.02933 14.86133,4.2832 4.40029,3.16035 7.4312,7.7973 8.83984,13.05664 0.21076,0.78689 0.38253,1.57921 0.51758,2.37305 0.73679,4.33101 0.5264,9.43149 -1.04687,14.99219 -1.65073,5.83447 -4.71722,11.87146 -9.27149,17.69922 -4.6274,5.92133 -10.51732,11.28073 -17.39062,15.91406 -5.72403,3.8586 -11.68581,6.91809 -17.4668,9.3457 1.05417,0.082 2.14024,0.27347 3.23047,0.60938 0.72228,0.22254 1.49108,0.52449 2.2793,0.92383 1.6717,0.84693 3.42414,2.13626 4.93554,4.01367 1.23692,1.53645 2.2678,3.41306 2.94141,5.62109 0.59132,1.93826 0.89272,4.08869 0.83594,6.40625 -0.10002,4.08237 -1.31824,8.66098 -3.95899,13.30274 -2.36552,4.15797 -5.8906,8.38659 -10.74804,12.21289 -4.54365,3.57911 -10.26064,6.80866 -17.23633,9.23437 -13.30835,4.62782 -31.04192,6.2785 -53.52735,2 -0.0671,-0.0128 -0.11236,-0.0217 -0.10937,-0.0215 -17.94887,-3.85267 -33.55395,-12.33267 -46.81055,-23.28125 -14.19865,-11.72663 -25.47533,-26.08503 -34.15625,-40.22852 -10.68012,-17.40072 -17.53051,-34.59511 -21.78515,-47.79492 -3.4932,-10.83745 -5.47176,-19.70349 -6.58203,-25.11133 -2.22586,-10.84168 -2.95554,-18.84155 -3.17383,-21.4082 -0.0534,-0.65636 0.10245,-1.31277 0.44531,-1.875 0.40356,-1.20212 1.52117,-2.0192 2.78906,-2.03907 2.60025,-0.0402 10.67348,-0.13129 21.4336,-1.31445 2.72133,-0.29923 6.14325,-0.73953 10.08984,-1.37109 8.96584,-1.43478 21.67744,-4.01659 35.6543,-8.64063 11.26447,-3.72668 23.44862,-8.81165 35.23632,-15.76367 11.07749,-6.53316 21.46718,-14.5147 30.43165,-24.24023 8.05259,-8.64098 16.4019,-14.2931 24.6621,-17.39649 4.8275,-1.81371 9.56385,-2.7352 14.11915,-2.90039 z m -0.82618,10.53711 c -3.09313,0.18116 -6.34901,0.82327 -9.73632,2.03516 -6.56587,2.34909 -13.72956,6.88336 -21.04493,14.5039 -8.92396,9.22849 -18.99911,16.77561 -29.54687,22.93555 7.27388,-0.54054 14.87151,-0.1673 21.95508,1.86719 6.8257,1.96043 12.69517,5.3414 17.00586,10.17187 3.96783,4.44629 6.37241,9.86247 7.07812,15.78516 0.70185,5.89029 -0.30371,12.0431 -2.79297,17.95117 -2.67879,6.35792 -6.95424,12.1693 -12.28515,17.14258 -6.60182,6.15892 -14.29991,10.57312 -21.78711,13.6543 -3.84144,1.58085 -7.50193,2.75878 -10.70118,3.63672 4.34833,-0.58063 10.22847,-1.03206 15.69532,0.11523 2.18771,0.45912 4.22064,1.15515 6.03515,2.12891 1.73888,0.93316 3.22958,2.09556 4.43946,3.47461 1.22731,1.39891 2.11576,2.96458 2.68945,4.61914 0.28942,0.8347 0.49503,1.67931 0.625,2.52148 0.13823,0.89576 0.19928,1.83123 0.17773,2.80078 -0.0778,3.50197 -1.23261,7.28781 -3.44726,11.00586 -2.13893,3.59091 -5.16225,6.94558 -8.82617,9.80078 -3.98743,3.1073 -8.46277,5.41966 -13.0625,6.98633 -2.06133,0.70209 -4.09109,1.23597 -6.06055,1.63672 -3.30427,0.67235 -6.75987,1.00935 -10.33398,0.9707 -0.0826,-8.9e-4 -0.16578,-0.003 -0.24805,-0.004 0.81751,0.84411 1.86162,2.71298 2.18945,5.43945 0.25217,2.09718 0.0532,4.4907 -0.74023,6.95898 -0.73826,2.29673 -1.92962,4.46503 -3.48828,6.35938 -1.76432,2.14429 -3.79538,3.70236 -5.84571,4.86523 -0.43617,0.24738 -0.86492,0.47281 -1.2832,0.67969 -1.99973,0.98907 -4.28189,1.73944 -6.88281,2.09961 -3.32373,0.46026 -6.96651,0.2534 -10.85352,-0.70313 -1.54312,-0.37973 -3.07376,-0.86479 -4.57812,-1.4375 0.99637,0.83723 2.00641,1.65911 3.03125,2.4668 12.54824,9.8894 26.90558,17.21851 43.04297,20.39649 21.10711,3.70417 36.89059,1.75902 48.04687,-2.28907 5.85809,-2.12562 10.46252,-4.83471 13.98828,-7.65234 3.77455,-3.01644 6.34857,-6.18144 8.01563,-9.04688 1.86572,-3.20691 2.61513,-6.05309 2.78711,-8.24609 0.0977,-1.24589 0.0142,-2.31017 -0.16016,-3.19726 -0.19711,-1.00291 -0.52174,-1.83537 -0.89648,-2.52344 -0.46206,-0.84837 -1.03966,-1.54904 -1.6875,-2.15625 -0.30719,-0.28792 -0.62515,-0.54934 -0.94922,-0.79492 -0.617,-0.46757 -1.30167,-0.90785 -2.07227,-1.31641 -1.99702,-1.0588 -4.30927,-1.76906 -6.63672,-2.17773 -1.34822,-0.23675 -2.65387,-0.36296 -3.81054,-0.39649 -2.82926,0.8368 -5.51292,1.52661 -7.98438,2.0957 -9.47445,2.18163 -17.60026,2.58871 -21.23242,2.8711 3.53264,-0.86486 11.31803,-3.17768 20.18555,-6.41406 10.15889,-3.7077 23.0512,-9.60875 34.20312,-19.15625 5.73188,-4.90725 10.25709,-10.1503 13.58789,-15.48243 3.2729,-5.23943 5.15149,-10.17402 6.09375,-14.49414 0.89319,-4.09515 0.91743,-7.49093 0.66406,-10.15625 -0.0471,-0.49523 -0.10485,-0.98506 -0.17382,-1.4707 -0.44618,-3.14124 -1.38627,-6.15196 -3.21485,-8.74023 -1.93826,-2.74354 -4.88081,-5.00322 -9.00586,-6.32227 -3.63642,-1.16281 -7.49914,-1.36949 -10.98633,-1.10352 -0.46629,0.35801 -0.93562,0.71135 -1.4082,1.06055 -12.53512,9.26264 -26.20802,14.70169 -35.91992,18.04297 9.55946,-4.04913 22.36012,-10.81835 33.4082,-21.07813 7.54861,-7.00999 13.60975,-15.02282 17.63086,-23.9082 3.47056,-7.66883 5.22645,-15.56815 5.38086,-23.35937 0.002,-0.10634 0.004,-0.21214 0.006,-0.31836 0.0897,-6.31219 -0.87207,-13.35807 -3.68164,-20.35157 -2.31596,-5.7648 -5.82493,-11.29332 -10.57813,-15.73046 -4.23152,-3.95017 -9.38961,-6.96569 -15.26171,-8.32227 -2.73511,-0.63187 -5.66469,-0.91163 -8.75782,-0.73047 z m -51.71289,43.43945 c -4.19473,-0.0869 -8.42318,0.22977 -12.52734,0.80664 -2.72679,0.38329 -5.32236,0.87028 -7.70313,1.39063 -10.07435,4.84306 -20.14298,8.47551 -29.47265,11.20898 -14.60232,4.2783 -27.76548,6.46755 -36.9668,7.68555 -4.04634,0.53562 -7.58207,0.91633 -10.35742,1.19531 -8.1298,0.81721 -14.86106,1.13873 -18.85547,1.26758 0.36545,3.65431 1.14475,10.06586 2.83594,18.1543 1.09942,5.25823 3.16616,13.79538 6.79492,24.26367 4.45966,12.86528 11.46169,29.2202 22.13477,45.70703 3.84433,5.93838 8.14712,11.85169 12.91796,17.52149 2.90996,2.66129 6.67376,5.8129 10.89454,8.76562 0.11419,0.0799 0.22859,0.16034 0.34375,0.24024 3.68166,2.55405 7.57364,4.89511 11.63671,6.49414 0.84354,0.33197 1.67758,0.62501 2.50391,0.8789 2.47898,0.76168 4.87731,1.16633 7.17578,1.18164 2.40453,0.016 4.60814,-0.39731 6.5586,-1.18164 0.40686,-0.1636 0.82191,-0.35417 1.24023,-0.57422 1.96941,-1.03596 3.83412,-2.62312 5.31445,-4.73632 1.31126,-1.87186 2.18696,-3.96582 2.63477,-6.07813 0.48191,-2.27319 0.33319,-4.65461 0.0194,-6.38944 -0.5616,-3.10461 -0.69642,-4.45929 -1.18722,-5.48813 -9.76182,-0.42348 -15.72078,-3.07925 -17.13098,-3.5892 4.18696,1.34452 10.96484,3.05761 18.97461,2.79493 3.51789,-0.11537 6.88353,-0.59704 10.06836,-1.39649 1.89849,-0.47656 3.83859,-1.10187 5.78516,-1.89844 4.34946,-1.77986 8.44398,-4.29954 11.96875,-7.47851 3.24404,-2.92577 5.76773,-6.19901 7.48046,-9.50586 1.77488,-3.42684 2.55757,-6.64508 2.625,-9.42383 0.0187,-0.77036 -0.0161,-1.50295 -0.0977,-2.19726 -0.0767,-0.65286 -0.1967,-1.30618 -0.36914,-1.95508 -0.33966,-1.27808 -0.88383,-2.54031 -1.70313,-3.74219 -0.81066,-1.1892 -1.88386,-2.30795 -3.26562,-3.30859 -1.44761,-1.04833 -3.17577,-1.92352 -5.16797,-2.60938 -5.23636,-1.80272 -11.24439,-1.92868 -15.70703,-1.63476 -2.75336,0.74125 -5.145,1.25734 -6.98633,1.61718 -5.94147,1.16111 -10.85276,1.56064 -12.48438,1.69727 1.59778,-0.18144 6.54567,-0.77775 12.4043,-2.07617 4.02411,-0.89185 10.6587,-2.58354 17.90234,-5.76758 7.35105,-3.23125 14.8055,-7.76809 21.08594,-13.95899 5.07049,-4.9982 9.0073,-10.7278 11.36133,-16.85547 2.18773,-5.69476 2.89405,-11.45534 2.06445,-16.80078 -0.8317,-5.35903 -3.17515,-10.1082 -6.8164,-13.92382 -3.95902,-4.14862 -9.30231,-7.0504 -15.60547,-8.69141 -3.96694,-1.03278 -8.12754,-1.52245 -12.32227,-1.60938 z"
       transform="matrix(-1,0,0,1,515.12584,25.778175)" />
  </g>
  <g
     id="g30"
     style="display:inline;fill:#000000;fill-opacity:1"
     transform="matrix(-1,0,0,1,514.00258,0.15721998)">
    <path
       id="path28"
       style="opacity:1;fill:url(#linearGradient34);fill-opacity:1;stroke:none;stroke-width:1.25;stroke-dasharray:none;stroke-opacity:1"
       d="m 207.38998,356.25392 c -10.60232,13.49045 -21.1949,24.67969 -37.72393,39.08154 -12.233,10.65869 -46.75915,20.36566 -62.13201,18.89553 C 63.226814,409.99383 41.669001,375.46742 66.6814,363.37541 50.681605,351.46019 34.574846,340.93949 28.988907,329.35986 23.432725,317.84191 8.7994149,289.87046 53.580604,287.04918 36.896551,266.04951 20.809606,238.11838 32.412798,212.10723 c 4.521674,-9.10668 25.83514,-24.15165 41.174538,-24.15165 18.182477,0 65.636894,70.23202 168.790644,70.64774 -2.7355,24.10379 -8.69222,44.58606 -18.24098,66.64911 z" />
    <g
       id="g29"
       style="fill:#000000;fill-opacity:1">
      <path
         id="path29"
         style="opacity:1;fill:#d1e4f5;fill-opacity:1;stroke:none;stroke-width:7.55906;stroke-linecap:round;stroke-linejoin:bevel;stroke-opacity:1"
         d="m 179.4677,382.97285 c 1.06892,-0.13409 1.41493,1.66567 -2.66627,3.25172 -5.63053,2.18816 -18.59652,3.02603 -24.19793,-0.67241 -14.70127,-9.70679 -10.98389,-24.36578 -6.1289,-26.29613 -4.59196,33.46278 27.31945,24.42853 32.9931,23.71682 z m -32.26372,-23.13966 c 0,0 -45.47575,8.61425 -42.5556,-33.40432 6.3248,13.03935 9.99878,29.95891 42.17007,32.66084 0.50172,0.0421 -0.12505,0.66487 0.38553,0.74348 z m -12.69822,-46.44194 c 0,0 -45.941744,-12.34346 -47.357383,-53.18113 -0.290952,-0.0975 -11.970643,46.46811 47.357383,53.18113 z m -31.10767,57.95169 -29.113988,-6.11797 c -8.733993,-0.69553 -16.47024,-4.69427 -16.903359,5.29419 l 1.170271,10.93436 C 68.81099,367.17491 91.770431,371.91037 103.39809,371.34294 Z M 83.724446,304.74383 52.659102,287.72497 C 43.925109,287.02944 40.995619,287.13654 35.625,288.25 l -7.396447,14.6731 c 13.880626,-8.74146 39.024873,-3.65236 55.495893,1.82073 z" />
    </g>
    <path
       id="path30"
       style="fill:url(#linearGradient35);fill-opacity:1;fill-rule:nonzero;stroke:none;stroke-width:4.72441;stroke-linecap:round;stroke-linejoin:round;stroke-dasharray:none;stroke-opacity:1"
       d="m 443.76647,157.31362 c 1.51843,-0.0551 3.0176,-0.0259 4.49218,0.082 1.96611,0.14387 3.89011,0.42955 5.76367,0.8418 7.98017,1.75592 14.82143,5.77319 20.24415,10.85547 6.07474,5.69337 10.35707,12.67606 13.02734,19.7539 3.24538,8.60227 4.07216,17.14308 3.52344,24.58399 -0.009,0.12536 -0.0192,0.2516 -0.0293,0.37695 -0.73969,9.21447 -3.65904,18.12564 -8.41211,26.25977 -4.50886,7.71618 -10.43445,14.36022 -17.17383,20.00781 2.63372,-0.7342 5.51935,-1.27547 8.52539,-1.36328 5.09983,-0.14898 10.33081,1.02933 14.86133,4.2832 4.40029,3.16035 7.4312,7.7973 8.83984,13.05664 0.21076,0.78689 0.38253,1.57921 0.51758,2.37305 0.73679,4.33101 0.5264,9.43149 -1.04687,14.99219 -1.65073,5.83447 -4.71722,11.87146 -9.27149,17.69922 -4.6274,5.92133 -10.51732,11.28073 -17.39062,15.91406 -5.72403,3.8586 -11.68581,6.91809 -17.4668,9.3457 1.05417,0.082 2.14024,0.27347 3.23047,0.60938 0.72228,0.22254 1.49108,0.52449 2.2793,0.92383 1.6717,0.84693 3.42414,2.13626 4.93554,4.01367 1.23692,1.53645 2.2678,3.41306 2.94141,5.62109 0.59132,1.93826 0.89272,4.08869 0.83594,6.40625 -0.10002,4.08237 -1.31824,8.66098 -3.95899,13.30274 -2.36552,4.15797 -5.8906,8.38659 -10.74804,12.21289 -4.54365,3.57911 -10.26064,6.80866 -17.23633,9.23437 -13.30835,4.62782 -31.04192,6.2785 -53.52735,2 -0.0671,-0.0128 -0.11236,-0.0217 -0.10937,-0.0215 -17.94887,-3.85267 -33.55395,-12.33267 -46.81055,-23.28125 -14.19865,-11.72663 -25.47533,-26.08503 -34.15625,-40.22852 -10.68012,-17.40072 -17.53051,-34.59511 -21.78515,-47.79492 -3.4932,-10.83745 -5.47176,-19.70349 -6.58203,-25.11133 -2.22586,-10.84168 -2.95554,-18.84155 -3.17383,-21.4082 -0.0534,-0.65636 0.10245,-1.31277 0.44531,-1.875 0.40356,-1.20212 1.52117,-2.0192 2.78906,-2.03907 2.60025,-0.0402 10.67348,-0.13129 21.4336,-1.31445 2.72133,-0.29923 6.14325,-0.73953 10.08984,-1.37109 8.96584,-1.43478 21.67744,-4.01659 35.6543,-8.64063 11.26447,-3.72668 23.44862,-8.81165 35.23632,-15.76367 11.07749,-6.53316 21.46718,-14.5147 30.43165,-24.24023 8.05259,-8.64098 16.4019,-14.2931 24.6621,-17.39649 4.8275,-1.81371 9.56385,-2.7352 14.11915,-2.90039 z m -0.82618,10.53711 c -3.09313,0.18116 -6.34901,0.82327 -9.73632,2.03516 -6.56587,2.34909 -13.72956,6.88336 -21.04493,14.5039 -8.92396,9.22849 -18.99911,16.77561 -29.54687,22.93555 7.27388,-0.54054 14.87151,-0.1673 21.95508,1.86719 6.8257,1.96043 12.69517,5.3414 17.00586,10.17187 3.96783,4.44629 6.37241,9.86247 7.07812,15.78516 0.70185,5.89029 -0.30371,12.0431 -2.79297,17.95117 -2.67879,6.35792 -6.95424,12.1693 -12.28515,17.14258 -6.60182,6.15892 -14.29991,10.57312 -21.78711,13.6543 -3.84144,1.58085 -7.50193,2.75878 -10.70118,3.63672 4.34833,-0.58063 10.22847,-1.03206 15.69532,0.11523 2.18771,0.45912 4.22064,1.15515 6.03515,2.12891 1.73888,0.93316 3.22958,2.09556 4.43946,3.47461 1.22731,1.39891 2.11576,2.96458 2.68945,4.61914 0.28942,0.8347 0.49503,1.67931 0.625,2.52148 0.13823,0.89576 0.19928,1.83123 0.17773,2.80078 -0.0778,3.50197 -1.23261,7.28781 -3.44726,11.00586 -2.13893,3.59091 -5.16225,6.94558 -8.82617,9.80078 -3.98743,3.1073 -8.46277,5.41966 -13.0625,6.98633 -2.06133,0.70209 -4.09109,1.23597 -6.06055,1.63672 -3.30427,0.67235 -6.75987,1.00935 -10.33398,0.9707 -0.0826,-8.9e-4 -0.16578,-0.003 -0.24805,-0.004 0.81751,0.84411 1.86162,2.71298 2.18945,5.43945 0.25217,2.09718 0.0532,4.4907 -0.74023,6.95898 -0.73826,2.29673 -1.92962,4.46503 -3.48828,6.35938 -1.76432,2.14429 -3.79538,3.70236 -5.84571,4.86523 -0.43617,0.24738 -0.86492,0.47281 -1.2832,0.67969 -1.99973,0.98907 -4.28189,1.73944 -6.88281,2.09961 -3.32373,0.46026 -6.96651,0.2534 -10.85352,-0.70313 -1.54312,-0.37973 -3.07376,-0.86479 -4.57812,-1.4375 0.99637,0.83723 2.00641,1.65911 3.03125,2.4668 12.54824,9.8894 26.90558,17.21851 43.04297,20.39649 21.10711,3.70417 36.89059,1.75902 48.04687,-2.28907 5.85809,-2.12562 10.46252,-4.83471 13.98828,-7.65234 3.77455,-3.01644 6.34857,-6.18144 8.01563,-9.04688 1.86572,-3.20691 2.61513,-6.05309 2.78711,-8.24609 0.0977,-1.24589 0.0142,-2.31017 -0.16016,-3.19726 -0.19711,-1.00291 -0.52174,-1.83537 -0.89648,-2.52344 -0.46206,-0.84837 -1.03966,-1.54904 -1.6875,-2.15625 -0.30719,-0.28792 -0.62515,-0.54934 -0.94922,-0.79492 -0.617,-0.46757 -1.30167,-0.90785 -2.07227,-1.31641 -1.99702,-1.0588 -4.30927,-1.76906 -6.63672,-2.17773 -1.34822,-0.23675 -2.65387,-0.36296 -3.81054,-0.39649 -2.82926,0.8368 -5.51292,1.52661 -7.98438,2.0957 -9.47445,2.18163 -17.60026,2.58871 -21.23242,2.8711 3.53264,-0.86486 11.31803,-3.17768 20.18555,-6.41406 10.15889,-3.7077 23.0512,-9.60875 34.20312,-19.15625 5.73188,-4.90725 10.25709,-10.1503 13.58789,-15.48243 3.2729,-5.23943 5.15149,-10.17402 6.09375,-14.49414 0.89319,-4.09515 0.91743,-7.49093 0.66406,-10.15625 -0.0471,-0.49523 -0.10485,-0.98506 -0.17382,-1.4707 -0.44618,-3.14124 -1.38627,-6.15196 -3.21485,-8.74023 -1.93826,-2.74354 -4.88081,-5.00322 -9.00586,-6.32227 -3.63642,-1.16281 -7.49914,-1.36949 -10.98633,-1.10352 -0.46629,0.35801 -0.93562,0.71135 -1.4082,1.06055 -12.53512,9.26264 -26.20802,14.70169 -35.91992,18.04297 9.55946,-4.04913 22.36012,-10.81835 33.4082,-21.07813 7.54861,-7.00999 13.60975,-15.02282 17.63086,-23.9082 3.47056,-7.66883 5.22645,-15.56815 5.38086,-23.35937 0.002,-0.10634 0.004,-0.21214 0.006,-0.31836 0.0897,-6.31219 -0.87207,-13.35807 -3.68164,-20.35157 -2.31596,-5.7648 -5.82493,-11.29332 -10.57813,-15.73046 -4.23152,-3.95017 -9.38961,-6.96569 -15.26171,-8.32227 -2.73511,-0.63187 -5.66469,-0.91163 -8.75782,-0.73047 z m -51.71289,43.43945 c -4.19473,-0.0869 -8.42318,0.22977 -12.52734,0.80664 -2.72679,0.38329 -5.32236,0.87028 -7.70313,1.39063 -10.07435,4.84306 -20.14298,8.47551 -29.47265,11.20898 -14.60232,4.2783 -27.76548,6.46755 -36.9668,7.68555 -4.04634,0.53562 -7.58207,0.91633 -10.35742,1.19531 -8.1298,0.81721 -14.86106,1.13873 -18.85547,1.26758 0.36545,3.65431 1.14475,10.06586 2.83594,18.1543 1.09942,5.25823 3.16616,13.79538 6.79492,24.26367 4.45966,12.86528 11.46169,29.2202 22.13477,45.70703 3.84433,5.93838 8.14712,11.85169 12.91796,17.52149 2.90996,2.66129 6.67376,5.8129 10.89454,8.76562 0.11419,0.0799 0.22859,0.16034 0.34375,0.24024 3.68166,2.55405 7.57364,4.89511 11.63671,6.49414 0.84354,0.33197 1.67758,0.62501 2.50391,0.8789 2.47898,0.76168 4.87731,1.16633 7.17578,1.18164 2.40453,0.016 4.60814,-0.39731 6.5586,-1.18164 0.40686,-0.1636 0.82191,-0.35417 1.24023,-0.57422 1.96941,-1.03596 3.83412,-2.62312 5.31445,-4.73632 1.31126,-1.87186 2.18696,-3.96582 2.63477,-6.07813 0.48191,-2.27319 0.33319,-4.65461 0.0194,-6.38944 -0.5616,-3.10461 -0.69642,-4.45929 -1.18722,-5.48813 -9.76182,-0.42348 -15.72078,-3.07925 -17.13098,-3.5892 4.18696,1.34452 10.96484,3.05761 18.97461,2.79493 3.51789,-0.11537 6.88353,-0.59704 10.06836,-1.39649 1.89849,-0.47656 3.83859,-1.10187 5.78516,-1.89844 4.34946,-1.77986 8.44398,-4.29954 11.96875,-7.47851 3.24404,-2.92577 5.76773,-6.19901 7.48046,-9.50586 1.77488,-3.42684 2.55757,-6.64508 2.625,-9.42383 0.0187,-0.77036 -0.0161,-1.50295 -0.0977,-2.19726 -0.0767,-0.65286 -0.1967,-1.30618 -0.36914,-1.95508 -0.33966,-1.27808 -0.88383,-2.54031 -1.70313,-3.74219 -0.81066,-1.1892 -1.88386,-2.30795 -3.26562,-3.30859 -1.44761,-1.04833 -3.17577,-1.92352 -5.16797,-2.60938 -5.23636,-1.80272 -11.24439,-1.92868 -15.70703,-1.63476 -2.75336,0.74125 -5.145,1.25734 -6.98633,1.61718 -5.94147,1.16111 -10.85276,1.56064 -12.48438,1.69727 1.59778,-0.18144 6.54567,-0.77775 12.4043,-2.07617 4.02411,-0.89185 10.6587,-2.58354 17.90234,-5.76758 7.35105,-3.23125 14.8055,-7.76809 21.08594,-13.95899 5.07049,-4.9982 9.0073,-10.7278 11.36133,-16.85547 2.18773,-5.69476 2.89405,-11.45534 2.06445,-16.80078 -0.8317,-5.35903 -3.17515,-10.1082 -6.8164,-13.92382 -3.95902,-4.14862 -9.30231,-7.0504 -15.60547,-8.69141 -3.96694,-1.03278 -8.12754,-1.52245 -12.32227,-1.60938 z"
       transform="matrix(-1,0,0,1,515.12584,25.778175)" />
  </g>
</svg>
